<?xml version="1.0" encoding="UTF-8" standalone="no"?>
<!DOCTYPE svg PUBLIC "-//W3C//DTD SVG 1.1//EN"
 "http://www.w3.org/Graphics/SVG/1.1/DTD/svg11.dtd">
<!-- Generated by graphviz version 12.2.1 (20241206.2353)
 -->
<!-- Title: ER&#45;01 Pages: 1 -->
<svg width="1178pt" height="157pt"
 viewBox="0.00 0.00 1177.83 156.51" xmlns="http://www.w3.org/2000/svg" xmlns:xlink="http://www.w3.org/1999/xlink">
<g id="graph0" class="graph" transform="scale(1 1) rotate(0) translate(21.6 134.91)">
<title>ER&#45;01</title>
<polygon fill="white" stroke="none" points="-21.6,21.6 -21.6,-134.91 1156.23,-134.91 1156.23,21.6 -21.6,21.6"/>
<text text-anchor="middle" x="567.31" y="-94.11" font-family="Segoe UI" font-size="16.00">ER&#45;01 — ID do Dispositivo &#160;&#160;| &#160;&#160;AFNε: 19 estados, 20 transições (5 movimentos ε)</text>
<!-- inicio -->
<g id="node1" class="node">
<title>inicio</title>
<text text-anchor="middle" x="21.6" y="-37.61" font-family="Segoe UI" font-size="11.00" fill="#1f3a5f">início</text>
</g>
<!-- q0 -->
<g id="node2" class="node">
<title>q0</title>
<ellipse fill="#f3f6fb" stroke="#1f3a5f" stroke-width="1.2" cx="84.76" cy="-40.56" rx="16.56" ry="16.56"/>
<text text-anchor="middle" x="84.76" y="-37.61" font-family="Segoe UI" font-size="11.00">q0</text>
</g>
<!-- inicio&#45;&gt;q0 -->
<g id="edge1" class="edge">
<title>inicio&#45;&gt;q0</title>
<path fill="none" stroke="#1f3a5f" stroke-width="1.6" d="M42.97,-40.56C48,-40.56 53.46,-40.56 58.69,-40.56"/>
<polygon fill="#1f3a5f" stroke="#1f3a5f" stroke-width="1.6" points="58.31,-43.01 65.31,-40.56 58.31,-38.11 58.31,-43.01"/>
</g>
<!-- q1 -->
<g id="node4" class="node">
<title>q1</title>
<ellipse fill="#f3f6fb" stroke="#1f3a5f" stroke-width="1.2" cx="147.13" cy="-65.56" rx="16.56" ry="16.56"/>
<text text-anchor="middle" x="147.13" y="-62.61" font-family="Segoe UI" font-size="11.00">q1</text>
</g>
<!-- q0&#45;&gt;q1 -->
<g id="edge2" class="edge">
<title>q0&#45;&gt;q1</title>
<path fill="none" stroke="#c0392b" stroke-dasharray="5,2" d="M100.37,-46.61C107.39,-49.52 115.95,-53.06 123.76,-56.29"/>
<polygon fill="#c0392b" stroke="#c0392b" points="122.43,-58.4 129.83,-58.81 124.3,-53.87 122.43,-58.4"/>
<text text-anchor="middle" x="115.94" y="-59.66" font-family="Segoe UI" font-size="12.00" fill="#c0392b">ε</text>
</g>
<!-- q2 -->
<g id="node5" class="node">
<title>q2</title>
<ellipse fill="#f3f6fb" stroke="#1f3a5f" stroke-width="1.2" cx="147.13" cy="-16.56" rx="16.56" ry="16.56"/>
<text text-anchor="middle" x="147.13" y="-13.61" font-family="Segoe UI" font-size="11.00">q2</text>
</g>
<!-- q0&#45;&gt;q2 -->
<g id="edge3" class="edge">
<title>q0&#45;&gt;q2</title>
<path fill="none" stroke="#c0392b" stroke-dasharray="5,2" d="M99.45,-32.12C103.78,-29.69 108.65,-27.19 113.32,-25.31 116.22,-24.14 119.34,-23.08 122.45,-22.13"/>
<polygon fill="#c0392b" stroke="#c0392b" points="122.97,-24.53 129.06,-20.3 121.66,-19.81 122.97,-24.53"/>
<text text-anchor="middle" x="115.94" y="-31.16" font-family="Segoe UI" font-size="12.00" fill="#c0392b">ε</text>
</g>
<!-- q18 -->
<g id="node3" class="node">
<title>q18</title>
<ellipse fill="#dff2e6" stroke="#1d6b3f" stroke-width="1.2" cx="1112.63" cy="-40.56" rx="18" ry="18"/>
<ellipse fill="none" stroke="#1d6b3f" stroke-width="1.2" cx="1112.63" cy="-40.56" rx="22" ry="22"/>
<text text-anchor="middle" x="1112.63" y="-37.61" font-family="Segoe UI" font-size="11.00">q18</text>
</g>
<!-- q3 -->
<g id="node6" class="node">
<title>q3</title>
<ellipse fill="#f3f6fb" stroke="#1f3a5f" stroke-width="1.2" cx="211.75" cy="-65.56" rx="16.56" ry="16.56"/>
<text text-anchor="middle" x="211.75" y="-62.61" font-family="Segoe UI" font-size="11.00">q3</text>
</g>
<!-- q1&#45;&gt;q3 -->
<g id="edge4" class="edge">
<title>q1&#45;&gt;q3</title>
<path fill="none" stroke="#1f3a5f" d="M163.93,-65.56C170.7,-65.56 178.77,-65.56 186.28,-65.56"/>
<polygon fill="#1f3a5f" stroke="#1f3a5f" points="186.22,-68.01 193.22,-65.56 186.22,-63.11 186.22,-68.01"/>
<text text-anchor="middle" x="179.44" y="-71.41" font-family="Segoe UI" font-size="12.00" fill="#13263d">S</text>
</g>
<!-- q4 -->
<g id="node7" class="node">
<title>q4</title>
<ellipse fill="#f3f6fb" stroke="#1f3a5f" stroke-width="1.2" cx="211.75" cy="-16.56" rx="16.56" ry="16.56"/>
<text text-anchor="middle" x="211.75" y="-13.61" font-family="Segoe UI" font-size="11.00">q4</text>
</g>
<!-- q2&#45;&gt;q4 -->
<g id="edge5" class="edge">
<title>q2&#45;&gt;q4</title>
<path fill="none" stroke="#1f3a5f" d="M163.93,-16.56C170.7,-16.56 178.77,-16.56 186.28,-16.56"/>
<polygon fill="#1f3a5f" stroke="#1f3a5f" points="186.22,-19.01 193.22,-16.56 186.22,-14.11 186.22,-19.01"/>
<text text-anchor="middle" x="179.44" y="-22.41" font-family="Segoe UI" font-size="12.00" fill="#13263d">A</text>
</g>
<!-- q5 -->
<g id="node8" class="node">
<title>q5</title>
<ellipse fill="#f3f6fb" stroke="#1f3a5f" stroke-width="1.2" cx="274.87" cy="-65.56" rx="16.56" ry="16.56"/>
<text text-anchor="middle" x="274.87" y="-62.61" font-family="Segoe UI" font-size="11.00">q5</text>
</g>
<!-- q3&#45;&gt;q5 -->
<g id="edge6" class="edge">
<title>q3&#45;&gt;q5</title>
<path fill="none" stroke="#1f3a5f" d="M228.81,-65.56C235.17,-65.56 242.63,-65.56 249.63,-65.56"/>
<polygon fill="#1f3a5f" stroke="#1f3a5f" points="249.62,-68.01 256.62,-65.56 249.62,-63.11 249.62,-68.01"/>
<text text-anchor="middle" x="243.31" y="-71.41" font-family="Segoe UI" font-size="12.00" fill="#13263d">E</text>
</g>
<!-- q6 -->
<g id="node9" class="node">
<title>q6</title>
<ellipse fill="#f3f6fb" stroke="#1f3a5f" stroke-width="1.2" cx="274.87" cy="-16.56" rx="16.56" ry="16.56"/>
<text text-anchor="middle" x="274.87" y="-13.61" font-family="Segoe UI" font-size="11.00">q6</text>
</g>
<!-- q4&#45;&gt;q6 -->
<g id="edge7" class="edge">
<title>q4&#45;&gt;q6</title>
<path fill="none" stroke="#1f3a5f" d="M228.81,-16.56C235.17,-16.56 242.63,-16.56 249.63,-16.56"/>
<polygon fill="#1f3a5f" stroke="#1f3a5f" points="249.62,-19.01 256.62,-16.56 249.62,-14.11 249.62,-19.01"/>
<text text-anchor="middle" x="243.31" y="-22.41" font-family="Segoe UI" font-size="12.00" fill="#13263d">T</text>
</g>
<!-- q7 -->
<g id="node10" class="node">
<title>q7</title>
<ellipse fill="#f3f6fb" stroke="#1f3a5f" stroke-width="1.2" cx="340.99" cy="-65.56" rx="16.56" ry="16.56"/>
<text text-anchor="middle" x="340.99" y="-62.61" font-family="Segoe UI" font-size="11.00">q7</text>
</g>
<!-- q5&#45;&gt;q7 -->
<g id="edge8" class="edge">
<title>q5&#45;&gt;q7</title>
<path fill="none" stroke="#1f3a5f" d="M291.72,-65.56C299.02,-65.56 307.84,-65.56 315.93,-65.56"/>
<polygon fill="#1f3a5f" stroke="#1f3a5f" points="315.81,-68.01 322.81,-65.56 315.81,-63.11 315.81,-68.01"/>
<text text-anchor="middle" x="307.93" y="-71.41" font-family="Segoe UI" font-size="12.00" fill="#13263d">N</text>
</g>
<!-- q8 -->
<g id="node11" class="node">
<title>q8</title>
<ellipse fill="#f3f6fb" stroke="#1f3a5f" stroke-width="1.2" cx="340.99" cy="-16.56" rx="16.56" ry="16.56"/>
<text text-anchor="middle" x="340.99" y="-13.61" font-family="Segoe UI" font-size="11.00">q8</text>
</g>
<!-- q6&#45;&gt;q8 -->
<g id="edge9" class="edge">
<title>q6&#45;&gt;q8</title>
<path fill="none" stroke="#1f3a5f" d="M291.72,-16.56C299.02,-16.56 307.84,-16.56 315.93,-16.56"/>
<polygon fill="#1f3a5f" stroke="#1f3a5f" points="315.81,-19.01 322.81,-16.56 315.81,-14.11 315.81,-19.01"/>
<text text-anchor="middle" x="307.93" y="-22.41" font-family="Segoe UI" font-size="12.00" fill="#13263d">U</text>
</g>
<!-- q9 -->
<g id="node12" class="node">
<title>q9</title>
<ellipse fill="#f3f6fb" stroke="#1f3a5f" stroke-width="1.2" cx="403.36" cy="-40.56" rx="16.56" ry="16.56"/>
<text text-anchor="middle" x="403.36" y="-37.61" font-family="Segoe UI" font-size="11.00">q9</text>
</g>
<!-- q7&#45;&gt;q9 -->
<g id="edge10" class="edge">
<title>q7&#45;&gt;q9</title>
<path fill="none" stroke="#c0392b" stroke-dasharray="5,2" d="M356.6,-59.51C363.62,-56.6 372.18,-53.06 379.99,-49.83"/>
<polygon fill="#c0392b" stroke="#c0392b" points="380.53,-52.25 386.06,-47.31 378.66,-47.72 380.53,-52.25"/>
<text text-anchor="middle" x="372.17" y="-59.66" font-family="Segoe UI" font-size="12.00" fill="#c0392b">ε</text>
</g>
<!-- q8&#45;&gt;q9 -->
<g id="edge11" class="edge">
<title>q8&#45;&gt;q9</title>
<path fill="none" stroke="#c0392b" stroke-dasharray="5,2" d="M357.6,-19.89C363.13,-21.29 369.33,-23.11 374.8,-25.31 376.99,-26.19 379.22,-27.21 381.42,-28.29"/>
<polygon fill="#c0392b" stroke="#c0392b" points="379.99,-30.31 387.33,-31.41 382.28,-25.97 379.99,-30.31"/>
<text text-anchor="middle" x="372.17" y="-31.16" font-family="Segoe UI" font-size="12.00" fill="#c0392b">ε</text>
</g>
<!-- q10 -->
<g id="node13" class="node">
<title>q10</title>
<ellipse fill="#f3f6fb" stroke="#1f3a5f" stroke-width="1.2" cx="464.98" cy="-40.56" rx="16.56" ry="16.56"/>
<text text-anchor="middle" x="464.98" y="-37.61" font-family="Segoe UI" font-size="11.00">q10</text>
</g>
<!-- q9&#45;&gt;q10 -->
<g id="edge12" class="edge">
<title>q9&#45;&gt;q10</title>
<path fill="none" stroke="#1f3a5f" d="M420.34,-40.56C426.22,-40.56 433.02,-40.56 439.48,-40.56"/>
<polygon fill="#1f3a5f" stroke="#1f3a5f" points="439.45,-43.01 446.45,-40.56 439.45,-38.11 439.45,-43.01"/>
<text text-anchor="middle" x="434.17" y="-46.41" font-family="Segoe UI" font-size="12.00" fill="#13263d">&#45;</text>
</g>
<!-- q11 -->
<g id="node14" class="node">
<title>q11</title>
<ellipse fill="#f3f6fb" stroke="#1f3a5f" stroke-width="1.2" cx="548.35" cy="-40.56" rx="16.56" ry="16.56"/>
<text text-anchor="middle" x="548.35" y="-37.61" font-family="Segoe UI" font-size="11.00">q11</text>
</g>
<!-- q10&#45;&gt;q11 -->
<g id="edge13" class="edge">
<title>q10&#45;&gt;q11</title>
<path fill="none" stroke="#1f3a5f" d="M481.67,-40.56C493.41,-40.56 509.69,-40.56 523.11,-40.56"/>
<polygon fill="#1f3a5f" stroke="#1f3a5f" points="522.92,-43.01 529.92,-40.56 522.92,-38.11 522.92,-43.01"/>
<text text-anchor="middle" x="506.66" y="-46.41" font-family="Segoe UI" font-size="12.00" fill="#13263d">[A&#45;Z]</text>
</g>
<!-- q12 -->
<g id="node15" class="node">
<title>q12</title>
<ellipse fill="#f3f6fb" stroke="#1f3a5f" stroke-width="1.2" cx="631.72" cy="-40.56" rx="16.56" ry="16.56"/>
<text text-anchor="middle" x="631.72" y="-37.61" font-family="Segoe UI" font-size="11.00">q12</text>
</g>
<!-- q11&#45;&gt;q12 -->
<g id="edge14" class="edge">
<title>q11&#45;&gt;q12</title>
<path fill="none" stroke="#1f3a5f" d="M565.04,-40.56C576.78,-40.56 593.06,-40.56 606.48,-40.56"/>
<polygon fill="#1f3a5f" stroke="#1f3a5f" points="606.29,-43.01 613.29,-40.56 606.29,-38.11 606.29,-43.01"/>
<text text-anchor="middle" x="590.03" y="-46.41" font-family="Segoe UI" font-size="12.00" fill="#13263d">[A&#45;Z]</text>
</g>
<!-- q13 -->
<g id="node16" class="node">
<title>q13</title>
<ellipse fill="#f3f6fb" stroke="#1f3a5f" stroke-width="1.2" cx="715.09" cy="-40.56" rx="16.56" ry="16.56"/>
<text text-anchor="middle" x="715.09" y="-37.61" font-family="Segoe UI" font-size="11.00">q13</text>
</g>
<!-- q12&#45;&gt;q13 -->
<g id="edge15" class="edge">
<title>q12&#45;&gt;q13</title>
<path fill="none" stroke="#1f3a5f" d="M648.41,-40.56C660.15,-40.56 676.43,-40.56 689.85,-40.56"/>
<polygon fill="#1f3a5f" stroke="#1f3a5f" points="689.66,-43.01 696.66,-40.56 689.66,-38.11 689.66,-43.01"/>
<text text-anchor="middle" x="673.4" y="-46.41" font-family="Segoe UI" font-size="12.00" fill="#13263d">[A&#45;Z]</text>
</g>
<!-- q12&#45;&gt;q13 -->
<g id="edge16" class="edge">
<title>q12&#45;&gt;q13</title>
<path fill="none" stroke="#c0392b" stroke-dasharray="5,2" d="M644.04,-29.13C648.67,-25.22 654.33,-21.34 660.28,-19.31 671.32,-15.55 675.49,-15.55 686.53,-19.31 689.88,-20.45 693.13,-22.18 696.16,-24.17"/>
<polygon fill="#c0392b" stroke="#c0392b" points="694.49,-25.97 701.56,-28.22 697.43,-22.06 694.49,-25.97"/>
<text text-anchor="middle" x="673.4" y="-25.16" font-family="Segoe UI" font-size="12.00" fill="#c0392b">ε</text>
</g>
<!-- q14 -->
<g id="node17" class="node">
<title>q14</title>
<ellipse fill="#f3f6fb" stroke="#1f3a5f" stroke-width="1.2" cx="776.71" cy="-40.56" rx="16.56" ry="16.56"/>
<text text-anchor="middle" x="776.71" y="-37.61" font-family="Segoe UI" font-size="11.00">q14</text>
</g>
<!-- q13&#45;&gt;q14 -->
<g id="edge17" class="edge">
<title>q13&#45;&gt;q14</title>
<path fill="none" stroke="#1f3a5f" d="M732.07,-40.56C737.95,-40.56 744.75,-40.56 751.21,-40.56"/>
<polygon fill="#1f3a5f" stroke="#1f3a5f" points="751.18,-43.01 758.18,-40.56 751.18,-38.11 751.18,-43.01"/>
<text text-anchor="middle" x="745.9" y="-46.41" font-family="Segoe UI" font-size="12.00" fill="#13263d">&#45;</text>
</g>
<!-- q15 -->
<g id="node18" class="node">
<title>q15</title>
<ellipse fill="#f3f6fb" stroke="#1f3a5f" stroke-width="1.2" cx="859.33" cy="-40.56" rx="16.56" ry="16.56"/>
<text text-anchor="middle" x="859.33" y="-37.61" font-family="Segoe UI" font-size="11.00">q15</text>
</g>
<!-- q14&#45;&gt;q15 -->
<g id="edge18" class="edge">
<title>q14&#45;&gt;q15</title>
<path fill="none" stroke="#1f3a5f" d="M793.64,-40.56C805.23,-40.56 821.14,-40.56 834.27,-40.56"/>
<polygon fill="#1f3a5f" stroke="#1f3a5f" points="833.92,-43.01 840.92,-40.56 833.92,-38.11 833.92,-43.01"/>
<text text-anchor="middle" x="818.02" y="-46.41" font-family="Segoe UI" font-size="12.00" fill="#13263d">[0&#45;9]</text>
</g>
<!-- q16 -->
<g id="node19" class="node">
<title>q16</title>
<ellipse fill="#f3f6fb" stroke="#1f3a5f" stroke-width="1.2" cx="941.95" cy="-40.56" rx="16.56" ry="16.56"/>
<text text-anchor="middle" x="941.95" y="-37.61" font-family="Segoe UI" font-size="11.00">q16</text>
</g>
<!-- q15&#45;&gt;q16 -->
<g id="edge19" class="edge">
<title>q15&#45;&gt;q16</title>
<path fill="none" stroke="#1f3a5f" d="M876.26,-40.56C887.85,-40.56 903.76,-40.56 916.89,-40.56"/>
<polygon fill="#1f3a5f" stroke="#1f3a5f" points="916.54,-43.01 923.54,-40.56 916.54,-38.11 916.54,-43.01"/>
<text text-anchor="middle" x="900.64" y="-46.41" font-family="Segoe UI" font-size="12.00" fill="#13263d">[0&#45;9]</text>
</g>
<!-- q17 -->
<g id="node20" class="node">
<title>q17</title>
<ellipse fill="#f3f6fb" stroke="#1f3a5f" stroke-width="1.2" cx="1024.57" cy="-40.56" rx="16.56" ry="16.56"/>
<text text-anchor="middle" x="1024.57" y="-37.61" font-family="Segoe UI" font-size="11.00">q17</text>
</g>
<!-- q16&#45;&gt;q17 -->
<g id="edge20" class="edge">
<title>q16&#45;&gt;q17</title>
<path fill="none" stroke="#1f3a5f" d="M958.88,-40.56C970.47,-40.56 986.38,-40.56 999.51,-40.56"/>
<polygon fill="#1f3a5f" stroke="#1f3a5f" points="999.16,-43.01 1006.16,-40.56 999.16,-38.11 999.16,-43.01"/>
<text text-anchor="middle" x="983.26" y="-46.41" font-family="Segoe UI" font-size="12.00" fill="#13263d">[0&#45;9]</text>
</g>
<!-- q17&#45;&gt;q18 -->
<g id="edge21" class="edge">
<title>q17&#45;&gt;q18</title>
<path fill="none" stroke="#1f3a5f" d="M1041.35,-40.56C1052.77,-40.56 1068.52,-40.56 1082.22,-40.56"/>
<polygon fill="#1f3a5f" stroke="#1f3a5f" points="1081.92,-43.01 1088.92,-40.56 1081.92,-38.11 1081.92,-43.01"/>
<text text-anchor="middle" x="1065.88" y="-46.41" font-family="Segoe UI" font-size="12.00" fill="#13263d">[0&#45;9]</text>
</g>
</g>
</svg>
